<?xml version="1.0" encoding="UTF-8"?>
<svg id="Layer_1" data-name="Layer 1" xmlns="http://www.w3.org/2000/svg" viewBox="0 0 210.45 143.16">
  <defs>
    <style>
      .cls-1 {
        fill: #fff;
      }

      .cls-2 {
        fill: none;
        stroke: #000;
        stroke-linecap: round;
        stroke-linejoin: round;
        stroke-width: 2px;
      }

      .cls-3 {
        fill-rule: evenodd;
      }
    </style>
  </defs>
  <g>
    <g>
      <line class="cls-2" x1="104.33" y1="8.36" x2="104.33" y2="137.18"/>
      <polygon points="96.16 14.99 97.62 16.36 104.33 9.13 111.05 16.36 112.51 14.99 104.33 6.2 96.16 14.99"/>
      <polygon points="96.16 130.55 97.62 129.19 104.33 136.41 111.05 129.19 112.51 130.55 104.33 139.35 96.16 130.55"/>
    </g>
    <g>
      <line class="cls-2" x1="202.66" y1="72.77" x2="6.01" y2="72.77"/>
      <polygon points="196.03 64.59 194.67 66.06 201.89 72.77 194.67 79.49 196.03 80.95 204.83 72.77 196.03 64.59"/>
      <polygon points="12.64 64.59 14 66.06 6.78 72.77 14 79.49 12.64 80.95 3.84 72.77 12.64 64.59"/>
    </g>
  </g>
  <rect class="cls-1" x="73.07" y="42.05" width="62.32" height="62.32"/>
  <path class="cls-3" d="M110.96,66.94c-.72,0-1.38,.22-1.93,.59-.48-1.35-1.76-2.32-3.28-2.32-.63,0-1.23,.17-1.74,.47v-7.42c0-1.92-1.56-3.48-3.48-3.48s-3.48,1.56-3.48,3.48v16.96l-1.75-3.04c-.96-1.66-3.09-2.23-4.75-1.27-1.66,.96-2.23,3.09-1.27,4.75,.22,.38,1.07,1.86,1.25,2.16,1.35,2.36,1.82,6.35,3.18,8.7,1.9,3.29,5.07,7.63,5.25,7.87,.28,.39,.82,.48,1.21,.2,.39-.28,.48-.82,.2-1.21-.18-.24-3.6-5.01-5.16-7.73-1.06-1.85-1.69-6.15-3.18-8.7-.18-.31-1.03-1.78-1.25-2.16-.48-.83-.2-1.89,.64-2.37,.83-.48,1.89-.2,2.37,.64l3.25,5.63c.3,.64,1.75,.61,1.75-.44v-19.99c0-.96,.78-1.74,1.74-1.74s1.74,.78,1.74,1.74v14.77c0,.48,.39,.87,.87,.87s.87-.39,.87-.87v-4.35c0-.96,.78-1.74,1.74-1.74s1.74,.78,1.74,1.74v4.35c0,.48,.39,.87,.87,.87s.87-.39,.87-.87v-2.61c0-.96,.78-1.74,1.74-1.74s1.74,.78,1.74,1.74v4.35c0,.48,.39,.87,.87,.87s.87-.39,.87-.87v-2.61c0-.96,.78-1.74,1.74-1.74s1.74,.78,1.74,1.74v6.08c0,5.69-3.48,11.12-3.48,15.64,0,.48,.39,.87,.87,.87s.87-.39,.87-.87c0-3.9,3.48-9.93,3.48-15.64v-6.08c0-1.92-1.56-3.48-3.48-3.48-.72,0-1.38,.22-1.93,.59-.48-1.35-1.76-2.32-3.28-2.32h0Z"/>
</svg>