<?xml version="1.0" encoding="UTF-8"?>
<svg id="Layer_1" data-name="Layer 1" xmlns="http://www.w3.org/2000/svg" viewBox="0 0 280 382.99">
  <defs>
    <style>
      .cls-1 {
        stroke: #ebeced;
        stroke-width: 8px;
      }

      .cls-1, .cls-2, .cls-3, .cls-4, .cls-5, .cls-6, .cls-7, .cls-8 {
        fill: none;
      }

      .cls-2 {
        stroke-dasharray: 0 0 0 2.03;
      }

      .cls-2, .cls-3, .cls-4, .cls-6, .cls-7, .cls-8 {
        stroke: #000;
      }

      .cls-2, .cls-3, .cls-4, .cls-8 {
        stroke-linecap: round;
      }

      .cls-2, .cls-3, .cls-5 {
        stroke-miterlimit: 10;
      }

      .cls-9 {
        fill: #d4b237;
      }

      .cls-10 {
        fill: #fff;
      }

      .cls-11 {
        fill: #f1f3f4;
      }

      .cls-12 {
        fill: #e25f8f;
      }

      .cls-13 {
        fill: #2faf76;
      }

      .cls-14 {
        fill: #23170c;
      }

      .cls-15 {
        fill: #6582e0;
      }

      .cls-4, .cls-8 {
        stroke-linejoin: round;
        stroke-width: 2px;
      }

      .cls-5 {
        stroke: #fff;
      }

      .cls-6 {
        stroke-width: 3px;
      }

      .cls-16 {
        isolation: isolate;
      }

      .cls-8 {
        stroke-dasharray: 0 0 0 3.87;
      }
    </style>
  </defs>
  <g>
    <g>
      <path class="cls-7" d="M49.62,287.01c0,10.19,41.31,18.46,92.28,18.46s92.28-8.26,92.28-18.46-41.31-18.46-92.28-18.46-92.28,8.26-92.28,18.46"/>
      <path class="cls-6" d="M9.21,287.01c.01,14.66,59.43,26.54,132.72,26.53,73.26,0,132.65-11.88,132.66-26.53-.01-14.66-59.43-26.54-132.72-26.53-73.26,0-132.65,11.88-132.66,26.53"/>
    </g>
    <path class="cls-1" d="M134.13,281.41h16.16"/>
    <g>
      <path class="cls-14" d="M110.56,136.42s22.5,6.44,33.15,20.1c.8-10.86,11.66-18.69,11.66-18.69-19.09,18.48,2.42,37.17,0,54.87,18.29-17.49,40.6-14.06,40.6-14.06-55.86,5.62-54.05,79.45-34.08,107.99,.48,.67-10.8,2.29-20.08,2.29s-19.15-1.64-18.96-2.29c1.18-4.15,2.29-7.56,3.22-11.85,1.12-5.13,1.6-11.95,.57-20.18-1.62-12.86-6.15-20.96-12-30.29-3.79-6.06-9.95-14.96-26.79-21.34,0,0,26.73,3.01,38.98,29.95,21.09-32.2,32.35-73.39-16.27-96.5h0Z"/>
      <g>
        <path class="cls-11" d="M117.99,260.15h47.83v22.33h-47.83v-22.33Z"/>
        <g class="cls-16">
          <path d="M124.11,276.62h.77c.86,0,1.22-.45,1.22-1.12,0-.45-.16-.98-.62-2.22l-2.21-5.84h2.29l1.22,3.7c.26,.75,.53,1.79,.53,1.79h.03s.22-1.04,.48-1.79l1.15-3.7h2.19l-2.87,8.42c-.62,1.83-1.23,2.48-2.9,2.48h-1.28v-1.71Z"/>
          <path d="M136.56,274.73h-.03c-.42,.62-1.01,1.1-2.42,1.1-1.68,0-2.87-.88-2.87-2.51,0-1.81,1.47-2.38,3.3-2.64,1.36-.19,1.99-.3,1.99-.93,0-.59-.46-.98-1.38-.98-1.02,0-1.52,.37-1.58,1.15h-1.94c.06-1.44,1.14-2.71,3.54-2.71s3.46,1.1,3.46,3.02v4.18c0,.62,.1,.99,.29,1.14v.08h-2.1c-.13-.16-.21-.54-.26-.91Zm.02-1.99v-1.23c-.38,.22-.98,.35-1.52,.48-1.14,.26-1.7,.51-1.7,1.28s.51,1.04,1.28,1.04c1.25,0,1.94-.77,1.94-1.57Z"/>
          <path d="M142.13,268.55h.05c.56-.88,1.31-1.34,2.43-1.34,1.7,0,2.83,1.28,2.83,3.07v5.36h-2.18v-5.04c0-.88-.51-1.5-1.42-1.5-.96,0-1.67,.77-1.67,1.89v4.66h-2.18v-8.21h2.13v1.12Z"/>
          <path d="M148.56,275.89h2.16c.18,.51,.64,.91,1.65,.91,1.23,0,1.82-.59,1.82-1.71v-.9h-.05c-.48,.54-1.11,.96-2.15,.96-1.83,0-3.62-1.44-3.62-3.92s1.47-4.02,3.55-4.02c1.02,0,1.78,.4,2.27,1.09h.03v-.86h2.1v7.59c0,1.15-.37,1.94-.98,2.5-.69,.64-1.75,.93-2.96,.93-2.24,0-3.62-.96-3.84-2.56Zm5.75-4.71c0-1.2-.64-2.22-1.95-2.22-1.1,0-1.84,.86-1.84,2.24s.74,2.21,1.86,2.21c1.38,0,1.94-1.01,1.94-2.22Z"/>
        </g>
      </g>
      <g>
        <path class="cls-12" d="M120.52,43.37c-6.02-11.81-1.32-26.26,10.49-32.28,11.81-6.02,26.26-1.32,32.28,10.49,3.49,6.85,3.49,14.95,0,21.79-9.02,0-17.29,5.06-21.38,13.1-4.1-8.04-12.36-13.1-21.38-13.1Z"/>
        <g class="cls-16">
          <path class="cls-10" d="M149.58,31.78h2.71v1.66h-8.78c1.44,2.9,4.54,5.35,9.24,7.37l-1.08,1.46c-5.02-2.16-8.26-4.97-9.72-8.42-1.15,3.22-4.37,6.05-9.65,8.45l-1.13-1.49c4.92-2.14,8.02-4.58,9.29-7.37h-8.88v-1.66h2.64v-8.11h6.84v-3.43h1.68v3.43h6.84v8.11Zm-8.59,0l.07-.5v-5.95h-5.14v6.46h5.06Zm6.91,0v-6.46h-5.16v5.95l.12,.5h5.04Z"/>
        </g>
      </g>
      <g>
        <path class="cls-12" d="M99.02,80.61c-6.02-11.81-1.32-26.26,10.49-32.28,11.81-6.02,26.26-1.32,32.28,10.49,3.49,6.85,3.49,14.95,0,21.79-9.02,0-17.29,5.06-21.38,13.1-4.1-8.04-12.36-13.1-21.38-13.1Z"/>
        <g class="cls-16">
          <path class="cls-10" d="M127.46,62.8h3.22v1.49h-6.53c1.63,1.2,4.06,2.14,7.27,2.86l-.74,1.54c-1.54-.43-2.88-.94-4.03-1.46-.05,1.78-.24,2.93-.62,3.41-.43,.48-1.42,.74-2.95,.74h-.53l-.41-1.27c.43,.02,.84,.05,1.22,.05,.77,0,1.22-.14,1.37-.43,.14-.29,.22-.77,.22-1.44h-9.36v3.91h13.83c-.07,3.17-.41,5.18-1.01,6-.62,.82-2.06,1.25-4.32,1.25h-1.7l-.46-1.39c.74,.02,1.46,.05,2.16,.05,1.44,0,2.4-.22,2.83-.65,.43-.41,.67-1.73,.77-3.94h-13.78v-5.98c-1.15,.43-2.42,.84-3.86,1.18l-.6-1.42c3.19-.72,5.57-1.71,7.13-3h-6.43v-1.49h2.9v-3.55h6.55c.14-.58,.24-1.15,.34-1.78l1.54,.14c-.07,.55-.17,1.1-.29,1.63h6.29v3.55Zm-1.75,12.27v1.37h-15.17v-1.37h15.17Zm-7.75-12.27c.48-.65,.86-1.37,1.18-2.14h-4.46v2.14h3.29Zm1.13,4.13c.29-.53,.53-1.15,.7-1.82l1.51,.29c-.14,.55-.36,1.06-.65,1.54h5.4c-1.58-.79-2.83-1.68-3.74-2.64h-3.5l-.5,.55c-.74,.77-1.75,1.46-3,2.09h3.79Zm2.45,3.7l-.84,1.01c-.91-.67-2.04-1.32-3.41-1.92l.82-.94c1.34,.55,2.47,1.18,3.43,1.85Zm-1.71-7.83h6v-2.14h-5.04c-.26,.77-.58,1.49-.96,2.14Z"/>
        </g>
      </g>
      <g>
        <path class="cls-12" d="M142.02,80.61c-6.02-11.81-1.32-26.26,10.49-32.28,11.81-6.02,26.26-1.32,32.28,10.49,3.49,6.85,3.49,14.95,0,21.79-9.02,0-17.29,5.06-21.38,13.1-4.1-8.04-12.36-13.1-21.38-13.1Z"/>
        <g class="cls-16">
          <path class="cls-10" d="M152.84,59.64c2.79-.29,5.26-.82,7.42-1.61l.6,1.61c-.91,.29-1.85,.55-2.86,.79v3.91h2.93v1.66h-2.93v1.1c1.1,.96,2.23,2.02,3.38,3.22l-.96,1.44c-.96-1.34-1.75-2.42-2.42-3.22v10.9h-1.68v-10.83c-.82,2.42-1.9,4.61-3.26,6.58l-.77-1.94c1.78-2.14,3.05-4.56,3.82-7.25h-3.24v-1.66h3.46v-3.55c-1.01,.19-2.06,.34-3.14,.48l-.34-1.63Zm15.7-2.06v3.46h4.22v8.02h1.25v1.58h-5.09c.84,2.93,2.71,5.38,5.64,7.39l-1.08,1.42c-2.95-2.06-4.85-4.73-5.71-7.97-.74,3.05-2.86,5.69-6.36,7.95l-1.03-1.37c3.36-2.11,5.42-4.58,6.19-7.42h-5.16v-1.58h1.27v-8.02h4.2v-3.46h1.66Zm-4.22,5.02v6.46h2.54c0-.1,.02-.17,.02-.24v-6.22h-2.57Zm6.84,0h-2.62v6.22c0,.1,.02,.17,.05,.24h2.57v-6.46Z"/>
        </g>
      </g>
      <g>
        <path class="cls-12" d="M34.52,117.85c-6.02-11.81-1.32-26.26,10.49-32.28,11.81-6.02,26.26-1.32,32.28,10.49,3.49,6.85,3.49,14.95,0,21.79-9.02,0-17.29,5.06-21.38,13.1-4.1-8.04-12.36-13.1-21.38-13.1Z"/>
        <g class="cls-16">
          <path class="cls-10" d="M50.05,104.27l-1.22,1.22c-.91-1.1-2.14-2.3-3.72-3.58l1.25-1.18c1.46,1.18,2.69,2.35,3.7,3.53Zm.24,4.27c-.96,2.83-2.02,5.5-3.19,7.99l-1.7-.74c1.29-2.54,2.45-5.16,3.41-7.83l1.49,.58Zm.43-9.89l-1.22,1.22c-.94-1.13-2.21-2.33-3.84-3.6l1.22-1.18c1.51,1.18,2.78,2.35,3.84,3.55Zm8.81-3.94v3.46h5.26v8.09h1.75v1.66h-6.53c1.01,2.95,3.26,5.42,6.74,7.44l-1.1,1.44c-3.55-2.11-5.86-4.85-6.91-8.21-.84,3.14-3.24,5.88-7.18,8.23l-1.13-1.49c3.77-2.14,6.1-4.61,7.01-7.42h-6.65v-1.66h1.82v-8.09h5.23v-3.46h1.68Zm-5.26,5.09v6.46h3.53c.02-.14,.05-.24,.05-.31v-6.14h-3.58Zm8.83,0h-3.58v6.14c0,.1,.02,.22,.07,.31h3.5v-6.46Z"/>
        </g>
      </g>
      <g>
        <path class="cls-9" d="M77.52,117.85c-6.02-11.81-1.32-26.26,10.49-32.28,11.81-6.02,26.26-1.32,32.28,10.49,3.49,6.85,3.49,14.95,0,21.79-9.02,0-17.29,5.06-21.38,13.1-4.1-8.04-12.36-13.1-21.38-13.1Z"/>
        <g class="cls-16">
          <path class="cls-10" d="M88.68,116.48l-.36-1.66c.65,.07,1.27,.12,1.87,.12,.7,0,1.06-.38,1.06-1.1v-5.71c-1.01,.41-2.04,.79-3.07,1.13l-.43-1.78c1.18-.31,2.35-.67,3.5-1.1v-5.57h-3.07v-1.66h3.07v-4.39h1.73v4.39h2.57v1.66h-2.57v4.85c.96-.43,1.9-.94,2.81-1.46v1.73c-.91,.53-1.85,1.01-2.81,1.44v6.91c0,1.46-.74,2.21-2.18,2.21h-2.11Zm8.04-11.98v-1.61c2.88-1.75,5.57-3.62,8.02-5.59h-7.9v-1.58h10.34v1.51c-2.3,2.04-4.82,3.96-7.56,5.74h9.43c-.12,5.69-.38,9.36-.77,10.99-.41,1.63-1.46,2.47-3.17,2.52-.91,0-1.8-.02-2.66-.07l-.46-1.66c.96,.05,1.92,.1,2.86,.1,.89-.02,1.49-.48,1.82-1.34,.29-.82,.5-3.82,.65-9h-1.78c-.58,2.81-1.39,5.04-2.45,6.7-1.22,1.82-3.07,3.46-5.54,4.9l-1.03-1.37c2.26-1.3,3.96-2.71,5.11-4.25,1.03-1.51,1.8-3.5,2.3-5.98h-2.09c-1.18,3.19-3.19,5.69-6.03,7.49l-1.01-1.25c2.54-1.58,4.37-3.67,5.42-6.24h-3.53Z"/>
        </g>
      </g>
      <g>
        <path class="cls-9" d="M120.52,117.85c-6.02-11.81-1.32-26.26,10.49-32.28,11.81-6.02,26.26-1.32,32.28,10.49,3.49,6.85,3.49,14.95,0,21.79-9.02,0-17.29,5.06-21.38,13.1-4.1-8.04-12.36-13.1-21.38-13.1Z"/>
        <g class="cls-16">
          <path class="cls-10" d="M138.21,99.01c-.77-1.32-1.54-2.5-2.35-3.55l1.49-.72c.87,1.1,1.66,2.33,2.42,3.67l-1.2,.6h5.47c.84-1.34,1.58-2.78,2.21-4.32l1.68,.58c-.6,1.39-1.3,2.64-2.06,3.75h5.23v1.68h-8.3v3.48h7.1v1.66h-7.1v3.62h9.7v1.66h-9.7v5.78h-1.78v-5.78h-9.79v-1.66h9.79v-3.62h-7.1v-1.66h7.1v-3.48h-8.26v-1.68h5.45Z"/>
        </g>
      </g>
      <g>
        <path class="cls-9" d="M163.52,117.85c-6.02-11.81-1.32-26.26,10.49-32.28,11.81-6.02,26.26-1.32,32.28,10.49,3.49,6.85,3.49,14.95,0,21.79-9.02,0-17.29,5.06-21.38,13.1-4.1-8.04-12.36-13.1-21.38-13.1Z"/>
        <g class="cls-16">
          <path class="cls-10" d="M182.74,95.72v1.34c-.77,2.18-1.68,4.46-2.74,6.82,1.58,2.09,2.42,3.98,2.57,5.66,0,1.03-.26,1.78-.74,2.26-.72,.58-1.94,.86-3.67,.89l-.55-1.73c.36,.05,.67,.1,.91,.1,.94-.05,1.56-.19,1.87-.41,.29-.22,.46-.58,.46-1.1,0-1.61-.86-3.41-2.57-5.4,1.15-2.52,2.06-4.8,2.71-6.82h-4.32v19.49h-1.68v-21.1h7.75Zm12.17,20.95h-1.68v-1.87h-7.42v1.82h-1.68v-20.55h10.78v20.59Zm-1.68-12.12v-6.79h-7.42v6.79h7.42Zm0,8.59v-6.96h-7.42v6.96h7.42Z"/>
        </g>
      </g>
      <g>
        <path class="cls-9" d="M206.52,117.85c-6.02-11.81-1.32-26.26,10.49-32.28,11.81-6.02,26.26-1.32,32.28,10.49,3.49,6.85,3.49,14.95,0,21.79-9.02,0-17.29,5.06-21.38,13.1-4.1-8.04-12.36-13.1-21.38-13.1Z"/>
        <g class="cls-16">
          <path class="cls-10" d="M222.45,116.65h-1.68v-12.07c-.79,2.5-1.85,4.75-3.17,6.79l-.74-1.9c1.78-2.45,3.05-5.26,3.82-8.38h-3.41v-1.66h3.5v-4.68h1.68v4.68h2.95v1.66h-2.95v1.46c1.1,1.2,2.23,2.52,3.36,3.98l-.98,1.46c-.91-1.44-1.7-2.59-2.38-3.5v12.15Zm3.62-12.17v-1.58c2.81-1.75,5.4-3.62,7.75-5.59h-7.61v-1.58h10.03v1.51c-2.23,2.06-4.68,3.96-7.32,5.74h9.12c-.12,5.69-.38,9.36-.77,10.99-.38,1.63-1.44,2.47-3.17,2.52-.84,0-1.66-.02-2.45-.07l-.48-1.66c.91,.05,1.8,.1,2.66,.1,.89-.02,1.49-.48,1.82-1.34,.29-.82,.5-3.82,.65-9.03h-1.61c-.55,2.88-1.34,5.14-2.4,6.79-1.2,1.78-2.95,3.38-5.3,4.78l-1.06-1.37c2.16-1.25,3.79-2.62,4.9-4.13,1.03-1.51,1.78-3.53,2.26-6.07h-2.02c-1.1,3.1-3.03,5.52-5.76,7.25l-1.01-1.22c2.45-1.54,4.18-3.55,5.19-6.03h-3.43Z"/>
        </g>
      </g>
      <g>
        <path class="cls-9" d="M99.02,155.08c-6.02-11.81-1.32-26.26,10.49-32.28,11.81-6.02,26.26-1.32,32.28,10.49,3.49,6.85,3.49,14.95,0,21.79-9.02,0-17.29,5.06-21.38,13.1-4.1-8.04-12.36-13.1-21.38-13.1Z"/>
        <g class="cls-16">
          <path class="cls-10" d="M114.47,139.32v10.3c.6-.62,1.22-1.32,1.9-2.09l.46,1.75c-1.25,1.42-2.57,2.69-3.94,3.84l-.65-1.51c.36-.34,.55-.7,.55-1.1v-9.53h-3.38v-1.66h5.06Zm1.7-3.43l-1.15,1.2c-.94-1.15-2.23-2.35-3.89-3.65l1.2-1.13c1.54,1.2,2.81,2.38,3.84,3.58Zm1.66,2.21v-1.63h7.63c.79-1.44,1.49-2.98,2.09-4.61l1.66,.58c-.6,1.49-1.27,2.83-2.04,4.03h3.65v1.63h-5.67v3.48h4.94v1.63h-4.94v3.62h6.22v1.66h-6.22v5.47h-1.73v-5.47h-6.12v-1.66h6.12v-3.62h-4.9v-1.63h4.9v-3.48h-5.59Zm5.19-2.4l-1.42,.72c-.74-1.39-1.54-2.67-2.4-3.77l1.46-.7c.82,1.15,1.61,2.4,2.35,3.74Z"/>
        </g>
      </g>
      <g>
        <path class="cls-9" d="M142.02,155.08c-6.02-11.81-1.32-26.26,10.49-32.28,11.81-6.02,26.26-1.32,32.28,10.49,3.49,6.85,3.49,14.95,0,21.79-9.02,0-17.29,5.06-21.38,13.1-4.1-8.04-12.36-13.1-21.38-13.1Z"/>
        <g class="cls-16">
          <path class="cls-10" d="M157.81,141.89l-1.18,1.18c-.96-1.13-2.28-2.33-3.98-3.6l1.18-1.13c1.58,1.2,2.9,2.38,3.98,3.55Zm.26,3.53c-1.06,3.07-2.26,5.93-3.58,8.62l-1.68-.74c1.44-2.76,2.71-5.59,3.77-8.47l1.49,.6Zm.36-9.41l-1.18,1.18c-1.01-1.13-2.4-2.33-4.18-3.6l1.18-1.13c1.66,1.2,3.05,2.38,4.18,3.55Zm1.06,2.11v-1.66h8.23c.87-1.42,1.58-2.93,2.21-4.56l1.66,.6c-.62,1.49-1.34,2.81-2.14,3.96h4.15v1.66h-6.12v3.43h5.38v1.66h-5.38v3.62h6.89v1.68h-6.89v5.5h-1.78v-5.5h-6.89v-1.68h6.89v-3.62h-5.45v-1.66h5.45v-3.43h-6.22Zm5.62-2.4l-1.44,.72c-.72-1.37-1.49-2.59-2.3-3.67l1.46-.7c.79,1.1,1.56,2.33,2.28,3.65Z"/>
        </g>
      </g>
      <g>
        <path class="cls-9" d="M185.02,155.08c-6.02-11.81-1.32-26.26,10.49-32.28,11.81-6.02,26.26-1.32,32.28,10.49,3.49,6.85,3.49,14.95,0,21.79-9.02,0-17.29,5.06-21.38,13.1-4.1-8.04-12.36-13.1-21.38-13.1Z"/>
        <g class="cls-16">
          <path class="cls-10" d="M202.99,149.48h-5.06v1.87h-1.63v-18.1h6.7v16.23Zm-1.63-14.64h-3.43v5.81h3.43v-5.81Zm-3.43,13.06h3.43v-5.69h-3.43v5.69Zm6.75-6.14v-1.61c2.83-1.75,5.47-3.62,7.87-5.64h-7.73v-1.58h10.18v1.51c-2.26,2.06-4.73,3.98-7.42,5.78h9.14c-.14,5.74-.41,9.43-.79,11.06-.41,1.66-1.49,2.5-3.26,2.54-.79,0-1.56-.02-2.3-.07l-.48-1.66c.86,.05,1.71,.1,2.52,.1,.94-.05,1.56-.5,1.9-1.37,.34-.82,.55-3.84,.7-9.07h-1.42c-.6,2.98-1.46,5.33-2.62,7.03-1.3,1.85-3.22,3.5-5.81,4.94l-1.08-1.37c2.35-1.3,4.13-2.74,5.3-4.32,1.1-1.56,1.94-3.65,2.47-6.29h-1.92c-1.03,3.17-2.81,5.66-5.33,7.44l-1.06-1.32c2.23-1.58,3.79-3.62,4.68-6.12h-3.55Z"/>
        </g>
      </g>
      <g>
        <path class="cls-9" d="M56.02,155.08c-6.02-11.81-1.32-26.26,10.49-32.28,11.81-6.02,26.26-1.32,32.28,10.49,3.49,6.85,3.49,14.95,0,21.79-9.02,0-17.29,5.06-21.38,13.1-4.1-8.04-12.36-13.1-21.38-13.1Z"/>
        <g class="cls-16">
          <path class="cls-10" d="M68.95,136.88c-.07,2.5-.41,4.9-1.01,7.2l-1.44-.41c.58-2.18,.91-4.49,.98-6.91l1.46,.12Zm-1.13,17.07l-1.27-1.13c2.42-2.45,3.65-6.38,3.7-11.76v-8.83h1.63v6.55c.96-.86,1.8-1.92,2.57-3.14l1.01,1.37c-1.03,1.34-2.23,2.52-3.58,3.48v.58c-.02,1.49-.12,2.86-.29,4.1,1.15,1.2,2.3,2.52,3.48,3.98l-1.01,1.51c-1.08-1.66-1.99-2.93-2.76-3.84-.62,3.02-1.8,5.4-3.48,7.13Zm7.73-12.19v-1.61c2.78-1.75,5.38-3.62,7.73-5.59h-7.51v-1.58h9.94v1.51c-2.21,2.04-4.63,3.96-7.27,5.74h9.07c-.12,5.69-.38,9.36-.77,10.99-.38,1.63-1.44,2.47-3.17,2.52-.82,0-1.63-.02-2.4-.07l-.48-1.66c.89,.05,1.75,.1,2.62,.1,.89-.02,1.49-.48,1.82-1.34,.31-.82,.53-3.82,.65-9h-1.61c-.55,2.86-1.34,5.11-2.38,6.79-1.18,1.78-2.93,3.36-5.28,4.75l-1.06-1.37c2.16-1.25,3.77-2.62,4.85-4.13,1.03-1.51,1.8-3.53,2.28-6.05h-1.95c-.98,2.98-2.66,5.28-5.04,6.94l-.98-1.22c2.09-1.49,3.55-3.38,4.42-5.71h-3.48Z"/>
        </g>
      </g>
      <g>
        <path class="cls-9" d="M34.52,192.32c-6.02-11.81-1.32-26.26,10.49-32.28,11.81-6.02,26.26-1.32,32.28,10.49,3.49,6.85,3.49,14.95,0,21.79-9.02,0-17.29,5.06-21.38,13.1-4.1-8.04-12.36-13.1-21.38-13.1Z"/>
        <g class="cls-16">
          <path class="cls-10" d="M48.32,178.22v-5.86h-3.12v-1.66h7.9v1.66h-3.07v5.86h2.57v1.63h-2.57v5.62c.96-.38,1.92-.79,2.88-1.22v1.68c-2.3,1.01-4.8,1.87-7.46,2.57l-.41-1.63c1.11-.24,2.21-.5,3.29-.82v-6.19h-2.71v-1.63h2.71Zm5.86,.79v-1.61c2.86-1.78,5.5-3.65,7.92-5.67h-7.78v-1.58h10.22v1.51c-2.28,2.06-4.78,3.98-7.46,5.81h9.19c-.14,5.74-.41,9.43-.79,11.06-.43,1.68-1.54,2.52-3.31,2.57-.77,0-1.49-.02-2.21-.07l-.48-1.68c.82,.07,1.63,.12,2.42,.12,.96-.05,1.61-.5,1.94-1.39,.34-.79,.58-3.82,.72-9.07h-1.54c-.6,2.98-1.46,5.33-2.59,7.06-1.3,1.85-3.24,3.5-5.83,4.97l-1.06-1.37c2.35-1.3,4.13-2.74,5.33-4.32,1.13-1.58,1.97-3.7,2.5-6.34h-1.97c-1.01,3.1-2.69,5.52-5.09,7.25l-1.06-1.32c2.11-1.54,3.58-3.5,4.44-5.93h-3.53Z"/>
        </g>
      </g>
      <g>
        <path class="cls-13" d="M77.52,192.32c-6.02-11.81-1.32-26.26,10.49-32.28,11.81-6.02,26.26-1.32,32.28,10.49,3.49,6.85,3.49,14.95,0,21.79-9.02,0-17.29,5.06-21.38,13.1-4.1-8.04-12.36-13.1-21.38-13.1Z"/>
        <g class="cls-16">
          <path class="cls-10" d="M88.32,180.88l-.55-1.85c2.11-2.88,3.65-6.19,4.61-9.91l1.56,.72c-.43,1.56-.98,3.05-1.61,4.46v16.87h-1.61v-13.75c-.72,1.2-1.54,2.35-2.4,3.46Zm6.26,5.59c.38-.14,.58-.46,.58-.91v-14.06c2.04-.58,3.62-1.25,4.75-1.99l.98,1.39c-1.01,.62-2.38,1.22-4.15,1.78v13.11c1.3-.43,2.54-.91,3.74-1.44l.31,1.61c-1.63,.67-3.58,1.34-5.78,2.04l-.43-1.51Zm10.39,1.78l-.43-1.68,1.56,.07c.67,0,1.03-.41,1.03-1.18v-12.94h-3.62v18.6h-1.68v-20.21h6.94v14.91c0,1.61-.72,2.42-2.11,2.42h-1.68Z"/>
        </g>
      </g>
      <g>
        <path class="cls-13" d="M120.52,192.32c-6.02-11.81-1.32-26.26,10.49-32.28,11.81-6.02,26.26-1.32,32.28,10.49,3.49,6.85,3.49,14.95,0,21.79-9.02,0-17.29,5.06-21.38,13.1-4.1-8.04-12.36-13.1-21.38-13.1Z"/>
        <g class="cls-16">
          <path class="cls-10" d="M137.75,171.79c-.46-.72-.91-1.34-1.39-1.9l1.54-.74c.62,.82,1.2,1.68,1.78,2.64h4.51c.58-.86,1.1-1.78,1.56-2.71l1.68,.6c-.38,.77-.82,1.49-1.3,2.11h5.74v1.51h-9.14c-.19,.67-.38,1.3-.58,1.9h8.45v1.46h-9.03c-.31,.67-.65,1.32-.98,1.92h11.74v1.51h-6.03c1.44,1.7,3.67,3.05,6.65,4.03l-.74,1.58c-2.26-.91-4.1-1.97-5.5-3.17v8.64h-1.78v-8.79h1.61c-.82-.72-1.49-1.49-2.02-2.3h-4.92c-1.92,2.62-4.49,4.46-7.7,5.57l-.91-1.51c2.66-.84,4.82-2.18,6.48-4.06h-5.98v-1.51h7.13c.41-.62,.77-1.27,1.1-1.92h-6.43v-1.46h7.03c.22-.62,.41-1.27,.6-1.9h-8.91v-1.51h5.74Zm1.82,10.61v1.8c-.07,1.85-.58,3.34-1.51,4.46-.91,1.06-2.38,1.87-4.44,2.45l-.96-1.46c1.92-.5,3.29-1.18,4.06-2.04,.67-.86,1.03-2.02,1.08-3.41v-1.8h1.78Z"/>
        </g>
      </g>
      <g>
        <path class="cls-15" d="M163.52,192.32c-6.02-11.81-1.32-26.26,10.49-32.28,11.81-6.02,26.26-1.32,32.28,10.49,3.49,6.85,3.49,14.95,0,21.79-9.02,0-17.29,5.06-21.38,13.1-4.1-8.04-12.36-13.1-21.38-13.1Z"/>
        <g class="cls-16">
          <path class="cls-10" d="M179.19,191.25h-1.66v-12.26c-.74,2.18-1.7,4.18-2.88,5.98l-.89-1.44c1.68-2.3,2.9-4.94,3.65-7.94h-2.88v-1.66h3v-4.68h1.66v4.68h2.4v1.66h-2.4v1.51c1.01,1.08,2.02,2.3,3.07,3.65l-.94,1.39c-.82-1.27-1.51-2.3-2.14-3.12v12.24Zm3.38-16.06v-1.63h3.55c-.67-1.34-1.37-2.54-2.09-3.6l1.44-.67c.72,1.1,1.42,2.3,2.09,3.6l-1.37,.67h3.77c.74-1.37,1.39-2.83,1.97-4.39l1.66,.58c-.58,1.44-1.22,2.71-1.92,3.82h3.53v1.63h-5.47v3.53h4.75v1.63h-4.75v3.62h6.1v1.66h-6.1v5.67h-1.73v-5.67h-5.98v-1.66h5.98v-3.62h-4.68v-1.63h4.68v-3.53h-5.42Z"/>
        </g>
      </g>
      <g>
        <path class="cls-15" d="M206.52,192.32c-6.02-11.81-1.32-26.26,10.49-32.28,11.81-6.02,26.26-1.32,32.28,10.49,3.49,6.85,3.49,14.95,0,21.79-9.02,0-17.29,5.06-21.38,13.1-4.1-8.04-12.36-13.1-21.38-13.1Z"/>
        <g class="cls-16">
          <path class="cls-10" d="M222.02,178.84l-1.2,1.2c-.94-1.15-2.23-2.35-3.86-3.65l1.18-1.13c1.54,1.2,2.83,2.38,3.89,3.58Zm.31-6.1l-1.18,1.2c-1.01-1.03-2.38-2.11-4.1-3.26l1.18-1.13c1.63,1.06,3,2.14,4.1,3.19Zm-.48,9.84c-.96,3.02-2.04,5.86-3.19,8.5l-1.61-.7c1.27-2.74,2.38-5.52,3.29-8.4l1.51,.6Zm6.82,1.66v1.1c-1.06,2.42-3.1,4.27-6.12,5.54l-.96-1.27c2.5-.96,4.27-2.3,5.28-4.01h-4.3v-1.37h6.1Zm-1.8-12.7c-.38-.77-.79-1.49-1.25-2.11l1.7-.31c.41,.72,.82,1.51,1.22,2.42h3.84c.43-.79,.74-1.61,.98-2.47l1.66,.24c-.22,.79-.53,1.54-.96,2.23h3.46v1.39h-6.43v1.44h5.57v1.3h-5.57v1.49h6.98v1.39h-15.43v-1.39h6.79v-1.49h-5.47v-1.3h5.47v-1.44h-6.38v-1.39h3.82Zm.31,18l2.06,.07c.58,0,.89-.36,.89-1.06v-5.91h-5.69v-1.44h7.27v2.06c.24,.41,.5,.79,.79,1.18,1.54-.55,3-1.42,4.39-2.62l1.1,1.08c-1.32,1.2-2.81,2.11-4.46,2.76,1.42,1.44,3.22,2.66,5.42,3.65l-1.15,1.32c-2.62-1.39-4.66-3.05-6.1-5.02v3.43c0,1.3-.72,1.97-2.11,1.97h-2.04l-.38-1.49Zm7.25-9.17l-.53,1.32c-2.16-.74-4.42-1.32-6.75-1.73l.6-1.15c2.3,.36,4.54,.89,6.67,1.56Z"/>
        </g>
      </g>
      <g>
        <g>
          <path class="cls-9" d="M56.02,229.56c-6.02-11.81-1.32-26.26,10.49-32.28,3.37-1.72,7.11-2.62,10.9-2.62v48c-4.1-8.04-12.36-13.1-21.38-13.1Z"/>
          <path class="cls-15" d="M77.4,194.67c13.25,0,24,10.75,24,24,0,3.79-.9,7.52-2.62,10.9-9.02,0-17.29,5.06-21.38,13.1v-48Z"/>
        </g>
        <g class="cls-16">
          <path class="cls-10" d="M68.79,211.21c-.07,2.42-.38,4.73-.96,6.94l-1.44-.41c.55-2.11,.86-4.32,.94-6.65l1.46,.12Zm3.17-4.58v5.93c.84-.82,1.61-1.8,2.33-2.95l.96,1.32c-.96,1.34-2.06,2.45-3.29,3.36v1.15c-.03,1.8-.17,3.43-.43,4.92,1.13,1.3,2.26,2.76,3.38,4.39l-.96,1.46c-1.11-1.82-2.02-3.22-2.76-4.2-.7,2.74-1.85,4.9-3.46,6.53l-1.27-1.15c2.52-2.47,3.79-6.46,3.84-11.95v-8.81h1.66Zm3.55,5.95v-1.63h7.1c.79-1.42,1.46-2.93,2.04-4.56l1.63,.58c-.58,1.49-1.25,2.81-1.97,3.98h3.38v1.63h-5.21v3.48h4.61v1.63h-4.61v3.65h5.86v1.63h-5.86v5.57h-1.73v-5.57h-5.86v-1.63h5.86v-3.65h-4.63v-1.63h4.63v-3.48h-5.26Zm4.82-2.4l-1.39,.67c-.65-1.34-1.34-2.57-2.09-3.65l1.39-.67c.74,1.1,1.44,2.33,2.09,3.65Z"/>
        </g>
      </g>
    </g>
  </g>
  <g>
    <path d="M45.24,342.26h2.02c.17,.48,.6,.85,1.54,.85,1.16,0,1.71-.56,1.71-1.6v-.84h-.04c-.45,.51-1.04,.9-2.01,.9-1.71,0-3.39-1.35-3.39-3.67s1.38-3.77,3.33-3.77c.96,0,1.67,.38,2.13,1.02h.03v-.81h1.96v7.11c0,1.08-.34,1.81-.91,2.34-.65,.6-1.64,.87-2.78,.87-2.1,0-3.39-.9-3.6-2.4Zm5.38-4.41c0-1.12-.6-2.08-1.83-2.08-1.04,0-1.72,.81-1.72,2.1s.69,2.07,1.74,2.07c1.29,0,1.82-.94,1.82-2.08Z"/>
    <path d="M53.85,331.32h2.04v1.83h-2.04v-1.83Zm0,3.03h2.04v7.69h-2.04v-7.69Z"/>
    <path d="M56.58,334.34h2.07l1.23,3.99c.22,.74,.34,1.23,.34,1.23h.03s.1-.49,.33-1.23l1.26-3.99h2.04l-2.69,7.69h-1.95l-2.67-7.69Z"/>
    <path d="M63.98,338.18c0-2.28,1.54-4.05,3.79-4.05,2.47,0,3.79,1.89,3.79,4.63h-5.58c.15,1.19,.81,1.92,1.96,1.92,.79,0,1.26-.36,1.49-.94h2.01c-.29,1.36-1.5,2.52-3.48,2.52-2.55,0-3.99-1.79-3.99-4.08Zm2.04-.82h3.42c-.06-.98-.71-1.65-1.64-1.65-1.08,0-1.6,.65-1.78,1.65Z"/>
    <path d="M74.51,335.4h.04c.52-.83,1.23-1.26,2.28-1.26,1.59,0,2.66,1.2,2.66,2.88v5.02h-2.04v-4.72c0-.83-.48-1.41-1.33-1.41-.9,0-1.56,.72-1.56,1.77v4.36h-2.04v-7.69h2v1.05Z"/>
    <path d="M85.26,335.4h.04c.52-.83,1.23-1.26,2.28-1.26,1.59,0,2.66,1.2,2.66,2.88v5.02h-2.04v-4.72c0-.83-.48-1.41-1.33-1.41-.9,0-1.56,.72-1.56,1.77v4.36h-2.04v-7.69h2v1.05Z"/>
    <path d="M96.11,341.18h-.03c-.39,.58-.94,1.04-2.26,1.04-1.58,0-2.68-.83-2.68-2.35,0-1.69,1.38-2.23,3.09-2.48,1.27-.18,1.86-.28,1.86-.87s-.43-.92-1.29-.92c-.96,0-1.43,.34-1.49,1.08h-1.82c.06-1.35,1.07-2.53,3.32-2.53s3.24,1.04,3.24,2.83v3.91c0,.58,.09,.93,.27,1.06v.08h-1.96c-.12-.15-.2-.51-.24-.85Zm.01-1.86v-1.15c-.36,.21-.91,.33-1.42,.45-1.06,.24-1.59,.48-1.59,1.2s.48,.97,1.2,.97c1.17,0,1.81-.72,1.81-1.47Z"/>
    <path d="M99.33,334.34h1.96v1.04h.04c.42-.71,1.17-1.25,2.24-1.25,.97,0,1.75,.54,2.13,1.35h.03c.53-.84,1.33-1.35,2.31-1.35,1.62,0,2.53,1.05,2.53,2.73v5.17h-2.04v-4.83c0-.87-.43-1.32-1.18-1.32-.85,0-1.38,.66-1.38,1.68v4.47h-2.04v-4.83c0-.87-.43-1.32-1.18-1.32-.83,0-1.38,.66-1.38,1.68v4.47h-2.04v-7.69Z"/>
    <path d="M111.47,338.18c0-2.28,1.54-4.05,3.79-4.05,2.47,0,3.79,1.89,3.79,4.63h-5.58c.15,1.19,.81,1.92,1.96,1.92,.79,0,1.26-.36,1.49-.94h2.01c-.29,1.36-1.5,2.52-3.48,2.52-2.55,0-3.99-1.79-3.99-4.08Zm2.04-.82h3.42c-.06-.98-.71-1.65-1.64-1.65-1.08,0-1.6,.65-1.78,1.65Z"/>
    <path d="M127.38,342.04v-.9h-.04c-.52,.71-1.12,1.11-2.21,1.11-1.71,0-2.67-1.09-2.67-2.77v-5.13h2.03v4.79c0,.9,.41,1.39,1.27,1.39,.96,0,1.54-.72,1.54-1.74v-4.44h2.04v7.69h-1.96Z"/>
    <path d="M130.18,339.55h1.89c.13,.88,.76,1.27,1.68,1.27s1.41-.35,1.41-.89c0-.73-.98-.81-2.03-1.02-1.38-.27-2.73-.64-2.73-2.32s1.38-2.46,3.13-2.46c2.02,0,3.15,1,3.3,2.55h-1.84c-.09-.82-.62-1.12-1.49-1.12-.79,0-1.32,.3-1.32,.85,0,.66,1.02,.72,2.12,.95,1.29,.27,2.71,.63,2.71,2.43,0,1.54-1.32,2.48-3.24,2.48-2.24,0-3.48-1.08-3.6-2.71Z"/>
    <path d="M142.62,341.18h-.03c-.39,.58-.94,1.04-2.26,1.04-1.58,0-2.68-.83-2.68-2.35,0-1.69,1.38-2.23,3.09-2.48,1.27-.18,1.86-.28,1.86-.87s-.43-.92-1.29-.92c-.96,0-1.43,.34-1.49,1.08h-1.82c.06-1.35,1.07-2.53,3.32-2.53s3.24,1.04,3.24,2.83v3.91c0,.58,.09,.93,.27,1.06v.08h-1.96c-.12-.15-.2-.51-.24-.85Zm.01-1.86v-1.15c-.36,.21-.91,.33-1.42,.45-1.06,.24-1.59,.48-1.59,1.2s.48,.97,1.2,.97c1.17,0,1.81-.72,1.81-1.47Z"/>
    <path d="M145.63,342.26h2.02c.17,.48,.6,.85,1.54,.85,1.16,0,1.71-.56,1.71-1.6v-.84h-.04c-.45,.51-1.04,.9-2.01,.9-1.71,0-3.39-1.35-3.39-3.67s1.38-3.77,3.33-3.77c.96,0,1.66,.38,2.13,1.02h.03v-.81h1.96v7.11c0,1.08-.34,1.81-.91,2.34-.65,.6-1.64,.87-2.78,.87-2.1,0-3.39-.9-3.6-2.4Zm5.38-4.41c0-1.12-.6-2.08-1.83-2.08-1.04,0-1.72,.81-1.72,2.1s.69,2.07,1.74,2.07c1.29,0,1.82-.94,1.82-2.08Z"/>
    <path d="M153.87,338.18c0-2.28,1.54-4.05,3.79-4.05,2.47,0,3.79,1.89,3.79,4.63h-5.58c.15,1.19,.81,1.92,1.96,1.92,.79,0,1.26-.36,1.49-.94h2.01c-.29,1.36-1.5,2.52-3.48,2.52-2.55,0-3.99-1.79-3.99-4.08Zm2.04-.82h3.42c-.06-.98-.71-1.65-1.64-1.65-1.08,0-1.6,.65-1.78,1.65Z"/>
    <path d="M165.27,337.42c0-2.83,1.08-5.11,2.26-6.69h1.74c-1.09,1.73-1.88,3.79-1.88,6.69,0,2.7,.83,4.8,1.86,6.58h-1.71c-1.21-1.67-2.28-3.84-2.28-6.58Z"/>
    <path d="M170.11,334.34h1.96v.96h.04c.5-.67,1.21-1.17,2.26-1.17,2.04,0,3.34,1.67,3.34,4.06s-1.35,4.06-3.33,4.06c-1.08,0-1.79-.44-2.22-1.1h-.03v3.39h-2.04v-10.21Zm5.55,3.92c0-1.46-.51-2.48-1.77-2.48s-1.78,1.1-1.78,2.48,.64,2.31,1.86,2.31c1.04,0,1.7-.85,1.7-2.31Z"/>
    <path d="M178.3,338.18c0-2.28,1.54-4.05,3.79-4.05,2.47,0,3.79,1.89,3.79,4.63h-5.58c.15,1.19,.81,1.92,1.96,1.92,.79,0,1.26-.36,1.49-.94h2.01c-.29,1.36-1.5,2.52-3.48,2.52-2.55,0-3.99-1.79-3.99-4.08Zm2.04-.82h3.42c-.06-.98-.71-1.65-1.64-1.65-1.08,0-1.6,.65-1.78,1.65Z"/>
    <path d="M188.8,335.57h.04c.46-.87,.99-1.32,1.89-1.32,.23,0,.36,.02,.48,.06v1.78h-.04c-1.33-.13-2.29,.57-2.29,2.19v3.75h-2.04v-7.69h1.96v1.23Z"/>
    <path d="M194.62,334.34h1.96v1.04h.04c.42-.71,1.17-1.25,2.24-1.25,.97,0,1.75,.54,2.13,1.35h.03c.53-.84,1.33-1.35,2.31-1.35,1.62,0,2.53,1.05,2.53,2.73v5.17h-2.04v-4.83c0-.87-.43-1.32-1.18-1.32-.85,0-1.38,.66-1.38,1.68v4.47h-2.04v-4.83c0-.87-.43-1.32-1.18-1.32-.83,0-1.38,.66-1.38,1.68v4.47h-2.04v-7.69Z"/>
    <path d="M207.13,331.32h2.04v1.83h-2.04v-1.83Zm0,3.03h2.04v7.69h-2.04v-7.69Z"/>
    <path d="M210.52,331.32h2.04v10.72h-2.04v-10.72Z"/>
    <path d="M213.94,331.32h2.04v10.72h-2.04v-10.72Z"/>
    <path d="M217.33,331.32h2.04v1.83h-2.04v-1.83Zm0,3.03h2.04v7.69h-2.04v-7.69Z"/>
    <path d="M220.32,338.2c0-2.29,1.63-4.06,4.02-4.06s4.02,1.77,4.02,4.06-1.63,4.06-4.02,4.06-4.02-1.77-4.02-4.06Zm5.97,0c0-1.5-.71-2.52-1.95-2.52s-1.95,1.02-1.95,2.52,.69,2.5,1.95,2.5,1.95-1,1.95-2.5Z"/>
    <path d="M231.3,335.4h.04c.52-.83,1.23-1.26,2.28-1.26,1.59,0,2.66,1.2,2.66,2.88v5.02h-2.04v-4.72c0-.83-.48-1.41-1.33-1.41-.9,0-1.56,.72-1.56,1.77v4.36h-2.04v-7.69h2v1.05Z"/>
    <path d="M238.93,337.42c0-2.9-.78-4.96-1.88-6.69h1.74c1.18,1.58,2.26,3.85,2.26,6.69s-1.06,4.92-2.28,6.58h-1.71c1.03-1.78,1.86-3.88,1.86-6.58Z"/>
  </g>
  <g>
    <path d="M171.42,236.43v-.9h-.04c-.52,.71-1.12,1.11-2.21,1.11-1.71,0-2.67-1.09-2.67-2.77v-5.13h2.03v4.79c0,.9,.41,1.39,1.27,1.39,.96,0,1.54-.72,1.54-1.74v-4.44h2.04v7.69h-1.96Z"/>
    <path d="M174.23,233.94h1.89c.13,.88,.76,1.27,1.68,1.27s1.41-.35,1.41-.89c0-.73-.98-.81-2.03-1.02-1.38-.27-2.73-.65-2.73-2.33s1.38-2.46,3.13-2.46c2.02,0,3.15,1,3.3,2.55h-1.84c-.09-.82-.62-1.12-1.49-1.12-.79,0-1.32,.3-1.32,.85,0,.66,1.02,.72,2.12,.95,1.29,.27,2.71,.63,2.71,2.43,0,1.54-1.32,2.48-3.24,2.48-2.24,0-3.48-1.08-3.6-2.71Z"/>
    <path d="M186.66,235.58h-.03c-.39,.58-.94,1.04-2.26,1.04-1.58,0-2.68-.83-2.68-2.35,0-1.69,1.38-2.23,3.09-2.48,1.27-.18,1.86-.28,1.86-.87,0-.55-.43-.91-1.29-.91-.96,0-1.43,.34-1.49,1.08h-1.82c.06-1.35,1.07-2.53,3.32-2.53s3.24,1.04,3.24,2.83v3.91c0,.58,.09,.93,.27,1.06v.08h-1.96c-.12-.15-.2-.51-.24-.85Zm.01-1.86v-1.15c-.36,.21-.91,.33-1.42,.45-1.06,.24-1.59,.48-1.59,1.2s.48,.97,1.2,.97c1.17,0,1.81-.72,1.81-1.47Z"/>
    <path d="M189.68,236.66h2.02c.17,.48,.6,.85,1.54,.85,1.16,0,1.71-.56,1.71-1.6v-.84h-.04c-.45,.51-1.04,.9-2.01,.9-1.71,0-3.39-1.35-3.39-3.67s1.38-3.77,3.33-3.77c.96,0,1.66,.38,2.13,1.02h.03v-.81h1.96v7.11c0,1.08-.34,1.81-.91,2.34-.65,.6-1.64,.87-2.78,.87-2.1,0-3.39-.9-3.6-2.4Zm5.38-4.41c0-1.12-.6-2.08-1.83-2.08-1.04,0-1.72,.81-1.72,2.1s.69,2.07,1.74,2.07c1.29,0,1.82-.94,1.82-2.08Z"/>
    <path d="M197.91,232.58c0-2.28,1.54-4.05,3.79-4.05,2.47,0,3.79,1.89,3.79,4.63h-5.58c.15,1.19,.81,1.92,1.96,1.92,.79,0,1.26-.36,1.49-.94h2.01c-.29,1.36-1.5,2.52-3.48,2.52-2.55,0-3.99-1.79-3.99-4.08Zm2.04-.82h3.42c-.06-.98-.71-1.65-1.64-1.65-1.08,0-1.6,.65-1.78,1.65Z"/>
    <path d="M208.34,228.74h2.07l1.23,3.99c.22,.74,.34,1.23,.34,1.23h.03s.1-.49,.33-1.23l1.26-3.99h2.04l-2.69,7.69h-1.95l-2.67-7.69Z"/>
    <path d="M220.71,235.58h-.03c-.39,.58-.94,1.04-2.26,1.04-1.58,0-2.68-.83-2.68-2.35,0-1.69,1.38-2.23,3.09-2.48,1.27-.18,1.86-.28,1.86-.87,0-.55-.43-.91-1.29-.91-.96,0-1.43,.34-1.49,1.08h-1.82c.06-1.35,1.07-2.53,3.32-2.53s3.24,1.04,3.24,2.83v3.91c0,.58,.09,.93,.27,1.06v.08h-1.96c-.12-.15-.2-.51-.24-.85Zm.02-1.86v-1.15c-.36,.21-.92,.33-1.43,.45-1.06,.24-1.59,.48-1.59,1.2s.48,.97,1.2,.97c1.17,0,1.82-.72,1.82-1.47Z"/>
    <path d="M223.97,225.71h2.04v10.72h-2.04v-10.72Z"/>
    <path d="M232.22,236.43v-.9h-.04c-.52,.71-1.12,1.11-2.21,1.11-1.71,0-2.67-1.09-2.67-2.77v-5.13h2.03v4.79c0,.9,.41,1.39,1.27,1.39,.96,0,1.54-.72,1.54-1.74v-4.44h2.04v7.69h-1.96Z"/>
    <path d="M235.13,232.58c0-2.28,1.54-4.05,3.79-4.05,2.47,0,3.79,1.89,3.79,4.63h-5.58c.15,1.19,.81,1.92,1.96,1.92,.79,0,1.26-.36,1.49-.94h2.01c-.29,1.36-1.5,2.52-3.48,2.52-2.55,0-3.99-1.79-3.99-4.08Zm2.04-.82h3.42c-.06-.98-.71-1.65-1.64-1.65-1.08,0-1.6,.65-1.78,1.65Z"/>
  </g>
  <g>
    <path d="M8.68,366.06h1.89c.13,.88,.76,1.27,1.68,1.27s1.41-.35,1.41-.89c0-.73-.98-.81-2.03-1.02-1.38-.27-2.73-.64-2.73-2.32s1.38-2.46,3.13-2.46c2.02,0,3.15,1,3.3,2.55h-1.84c-.09-.82-.62-1.12-1.49-1.12-.79,0-1.32,.3-1.32,.85,0,.66,1.02,.72,2.12,.95,1.29,.27,2.71,.63,2.71,2.43,0,1.54-1.32,2.48-3.24,2.48-2.24,0-3.48-1.08-3.6-2.71Z"/>
    <path d="M21.3,368.55v-.9h-.04c-.52,.71-1.12,1.11-2.21,1.11-1.71,0-2.67-1.09-2.67-2.77v-5.13h2.03v4.79c0,.9,.41,1.39,1.27,1.39,.96,0,1.54-.72,1.54-1.74v-4.44h2.04v7.69h-1.96Z"/>
    <path d="M26.55,362.08h.04c.46-.87,.99-1.32,1.89-1.32,.23,0,.36,.02,.48,.06v1.78h-.04c-1.33-.13-2.29,.57-2.29,2.19v3.75h-2.04v-7.69h1.96v1.23Z"/>
    <path d="M31.84,361.9h.04c.52-.83,1.23-1.26,2.28-1.26,1.59,0,2.66,1.2,2.66,2.88v5.02h-2.04v-4.72c0-.83-.48-1.41-1.33-1.41-.9,0-1.56,.72-1.56,1.77v4.36h-2.04v-7.69h2v1.05Z"/>
    <path d="M42.69,367.69h-.03c-.39,.58-.94,1.04-2.26,1.04-1.58,0-2.68-.83-2.68-2.35,0-1.69,1.38-2.23,3.09-2.48,1.27-.18,1.86-.28,1.86-.87s-.43-.92-1.29-.92c-.96,0-1.43,.34-1.49,1.08h-1.82c.06-1.35,1.07-2.53,3.32-2.53s3.24,1.04,3.24,2.83v3.91c0,.58,.09,.93,.27,1.06v.08h-1.96c-.12-.15-.2-.51-.24-.85Zm.02-1.86v-1.15c-.36,.21-.92,.33-1.43,.45-1.06,.24-1.59,.48-1.59,1.2s.48,.97,1.2,.97c1.17,0,1.82-.72,1.82-1.47Z"/>
    <path d="M45.91,360.85h1.96v1.04h.04c.42-.71,1.17-1.25,2.24-1.25,.97,0,1.75,.54,2.13,1.35h.03c.53-.84,1.33-1.35,2.31-1.35,1.62,0,2.53,1.05,2.53,2.73v5.17h-2.04v-4.83c0-.87-.43-1.32-1.18-1.32-.85,0-1.38,.66-1.38,1.68v4.47h-2.04v-4.83c0-.87-.43-1.32-1.18-1.32-.83,0-1.38,.66-1.38,1.68v4.47h-2.04v-7.69Z"/>
    <path d="M58.05,364.69c0-2.28,1.54-4.05,3.79-4.05,2.47,0,3.79,1.89,3.79,4.63h-5.58c.15,1.19,.81,1.92,1.96,1.92,.79,0,1.26-.36,1.49-.94h2.01c-.29,1.36-1.5,2.52-3.48,2.52-2.55,0-3.99-1.79-3.99-4.08Zm2.04-.82h3.42c-.06-.98-.71-1.65-1.64-1.65-1.08,0-1.6,.65-1.78,1.65Z"/>
    <path d="M73.96,368.55v-.9h-.04c-.52,.71-1.12,1.11-2.21,1.11-1.71,0-2.67-1.09-2.67-2.77v-5.13h2.03v4.79c0,.9,.41,1.39,1.27,1.39,.96,0,1.54-.72,1.54-1.74v-4.44h2.04v7.69h-1.96Z"/>
    <path d="M76.77,366.06h1.89c.13,.88,.76,1.27,1.68,1.27s1.41-.35,1.41-.89c0-.73-.98-.81-2.03-1.02-1.38-.27-2.73-.64-2.73-2.32s1.38-2.46,3.13-2.46c2.02,0,3.15,1,3.3,2.55h-1.84c-.09-.82-.62-1.12-1.49-1.12-.79,0-1.32,.3-1.32,.85,0,.66,1.02,.72,2.12,.95,1.29,.27,2.71,.63,2.71,2.43,0,1.54-1.32,2.48-3.24,2.48-2.24,0-3.48-1.08-3.6-2.71Z"/>
    <path d="M89.2,367.69h-.03c-.39,.58-.94,1.04-2.26,1.04-1.58,0-2.68-.83-2.68-2.35,0-1.69,1.38-2.23,3.09-2.48,1.27-.18,1.86-.28,1.86-.87s-.43-.92-1.29-.92c-.96,0-1.43,.34-1.49,1.08h-1.82c.06-1.35,1.07-2.53,3.32-2.53s3.24,1.04,3.24,2.83v3.91c0,.58,.09,.93,.27,1.06v.08h-1.96c-.12-.15-.2-.51-.24-.85Zm.02-1.86v-1.15c-.36,.21-.92,.33-1.43,.45-1.06,.24-1.59,.48-1.59,1.2s.48,.97,1.2,.97c1.17,0,1.82-.72,1.82-1.47Z"/>
    <path d="M92.22,368.77h2.02c.17,.48,.6,.85,1.54,.85,1.16,0,1.71-.56,1.71-1.6v-.84h-.04c-.45,.51-1.04,.9-2.01,.9-1.71,0-3.39-1.35-3.39-3.67s1.38-3.77,3.33-3.77c.96,0,1.67,.38,2.13,1.02h.03v-.81h1.96v7.11c0,1.08-.34,1.81-.91,2.34-.65,.6-1.64,.87-2.78,.87-2.1,0-3.39-.9-3.6-2.4Zm5.38-4.41c0-1.12-.6-2.08-1.83-2.08-1.04,0-1.72,.81-1.72,2.1s.69,2.07,1.74,2.07c1.29,0,1.82-.94,1.82-2.08Z"/>
    <path d="M100.45,364.69c0-2.28,1.54-4.05,3.79-4.05,2.47,0,3.79,1.89,3.79,4.63h-5.58c.15,1.19,.81,1.92,1.96,1.92,.79,0,1.26-.36,1.49-.94h2.01c-.29,1.36-1.5,2.52-3.48,2.52-2.55,0-3.99-1.79-3.99-4.08Zm2.04-.82h3.42c-.06-.98-.71-1.65-1.64-1.65-1.08,0-1.6,.65-1.78,1.65Z"/>
    <path d="M111.85,363.93c0-2.83,1.08-5.11,2.26-6.69h1.74c-1.09,1.73-1.88,3.79-1.88,6.69,0,2.7,.83,4.8,1.86,6.58h-1.71c-1.21-1.67-2.28-3.84-2.28-6.58Z"/>
    <path d="M116.7,360.85h1.96v.96h.04c.5-.67,1.21-1.17,2.26-1.17,2.04,0,3.34,1.67,3.34,4.06s-1.35,4.06-3.33,4.06c-1.08,0-1.79-.44-2.22-1.1h-.03v3.39h-2.04v-10.21Zm5.55,3.92c0-1.46-.51-2.48-1.77-2.48s-1.78,1.1-1.78,2.48,.64,2.31,1.86,2.31c1.04,0,1.7-.85,1.7-2.31Z"/>
    <path d="M124.89,364.69c0-2.28,1.54-4.05,3.79-4.05,2.47,0,3.79,1.89,3.79,4.63h-5.58c.15,1.19,.81,1.92,1.96,1.92,.79,0,1.26-.36,1.49-.94h2.01c-.29,1.36-1.5,2.52-3.48,2.52-2.55,0-3.99-1.79-3.99-4.08Zm2.04-.82h3.42c-.06-.98-.71-1.65-1.64-1.65-1.08,0-1.6,.65-1.78,1.65Z"/>
    <path d="M135.39,362.08h.04c.46-.87,.99-1.32,1.89-1.32,.23,0,.36,.02,.48,.06v1.78h-.04c-1.33-.13-2.29,.57-2.29,2.19v3.75h-2.04v-7.69h1.96v1.23Z"/>
    <path d="M141.2,360.85h1.96v1.04h.04c.42-.71,1.17-1.25,2.24-1.25,.97,0,1.75,.54,2.13,1.35h.03c.53-.84,1.33-1.35,2.31-1.35,1.62,0,2.53,1.05,2.53,2.73v5.17h-2.04v-4.83c0-.87-.43-1.32-1.18-1.32-.85,0-1.38,.66-1.38,1.68v4.47h-2.04v-4.83c0-.87-.43-1.32-1.18-1.32-.83,0-1.38,.66-1.38,1.68v4.47h-2.04v-7.69Z"/>
    <path d="M153.72,357.82h2.04v1.83h-2.04v-1.83Zm0,3.03h2.04v7.69h-2.04v-7.69Z"/>
    <path d="M157.11,357.82h2.04v10.72h-2.04v-10.72Z"/>
    <path d="M160.53,357.82h2.04v10.72h-2.04v-10.72Z"/>
    <path d="M163.91,357.82h2.04v1.83h-2.04v-1.83Zm0,3.03h2.04v7.69h-2.04v-7.69Z"/>
    <path d="M166.9,364.71c0-2.29,1.63-4.06,4.02-4.06s4.02,1.77,4.02,4.06-1.63,4.06-4.02,4.06-4.02-1.77-4.02-4.06Zm5.97,0c0-1.5-.71-2.52-1.95-2.52s-1.95,1.02-1.95,2.52,.69,2.5,1.95,2.5,1.95-1,1.95-2.5Z"/>
    <path d="M177.88,361.9h.04c.52-.83,1.23-1.26,2.28-1.26,1.59,0,2.66,1.2,2.66,2.88v5.02h-2.04v-4.72c0-.83-.48-1.41-1.33-1.41-.9,0-1.56,.72-1.56,1.77v4.36h-2.04v-7.69h2v1.05Z"/>
    <path d="M185.51,363.93c0-2.9-.78-4.96-1.88-6.69h1.74c1.18,1.58,2.26,3.85,2.26,6.69s-1.06,4.92-2.28,6.58h-1.71c1.03-1.78,1.86-3.88,1.86-6.58Z"/>
  </g>
  <circle cx="19.01" cy="297.1" r="3.1"/>
  <circle cx="55.9" cy="293.38" r="3.1"/>
  <g>
    <line class="cls-4" x1="19.01" y1="297.1" x2="19.01" y2="297.1"/>
    <line class="cls-8" x1="19.01" y1="300.97" x2="19.01" y2="345.48"/>
    <line class="cls-4" x1="19.01" y1="347.42" x2="19.01" y2="347.42"/>
  </g>
  <g>
    <line class="cls-3" x1="55.9" y1="293.69" x2="55.9" y2="293.69"/>
    <line class="cls-2" x1="55.9" y1="295.72" x2="55.9" y2="321.06"/>
    <line class="cls-3" x1="55.9" y1="322.08" x2="55.9" y2="322.08"/>
  </g>
  <g>
    <g>
      <path d="M8.71,9.88h1.07v-2.4h1.99v2.4h1.32v1.35h-1.32v4.08c0,.57,.32,.77,.77,.77,.25,0,.6-.02,.6-.02v1.5s-.46,.03-1.27,.03c-.99,0-2.08-.39-2.08-1.85v-4.51h-1.07v-1.35Z"/>
      <path d="M13.69,13.74c0-2.29,1.63-4.06,4.02-4.06s4.02,1.77,4.02,4.06-1.63,4.06-4.02,4.06-4.02-1.77-4.02-4.06Zm5.97,0c0-1.5-.71-2.52-1.95-2.52s-1.95,1.02-1.95,2.52,.69,2.5,1.95,2.5,1.95-1,1.95-2.5Z"/>
      <path d="M24.67,10.93h.04c.52-.83,1.23-1.26,2.28-1.26,1.59,0,2.66,1.2,2.66,2.88v5.02h-2.04v-4.72c0-.83-.48-1.41-1.33-1.41-.9,0-1.56,.72-1.56,1.77v4.36h-2.04v-7.69h2v1.05Z"/>
      <path d="M30.54,13.72c0-2.28,1.54-4.05,3.79-4.05,2.47,0,3.79,1.89,3.79,4.63h-5.58c.15,1.19,.81,1.92,1.96,1.92,.79,0,1.26-.36,1.49-.94h2.01c-.29,1.36-1.5,2.52-3.48,2.52-2.55,0-3.99-1.79-3.99-4.08Zm2.04-.82h3.42c-.06-.98-.71-1.65-1.64-1.65-1.08,0-1.6,.65-1.78,1.65Z"/>
      <path d="M38.59,15.09h1.89c.13,.88,.76,1.27,1.68,1.27s1.41-.35,1.41-.89c0-.73-.98-.81-2.03-1.02-1.38-.27-2.73-.64-2.73-2.32s1.38-2.46,3.13-2.46c2.02,0,3.15,1,3.3,2.55h-1.84c-.09-.82-.62-1.12-1.49-1.12-.79,0-1.32,.3-1.32,.85,0,.66,1.02,.72,2.12,.95,1.29,.27,2.71,.63,2.71,2.43,0,1.54-1.32,2.48-3.24,2.48-2.24,0-3.48-1.08-3.6-2.71Z"/>
    </g>
    <g>
      <circle class="cls-12" cx="18.76" cy="34.12" r="10.11"/>
      <line class="cls-5" x1="14.62" y1="34.12" x2="22.9" y2="34.12"/>
    </g>
    <g>
      <circle class="cls-15" cx="43.29" cy="57.1" r="10.11"/>
      <line class="cls-5" x1="39.84" y1="54.82" x2="46.74" y2="59.39"/>
    </g>
    <g>
      <circle class="cls-9" cx="18.76" cy="57.1" r="10.11"/>
      <line class="cls-5" x1="15.72" y1="59.91" x2="21.8" y2="54.29"/>
    </g>
    <g>
      <circle class="cls-13" cx="43.29" cy="34.12" r="10.11"/>
      <polyline class="cls-5" points="39.28 31.79 43.23 36.08 47.7 31.96"/>
    </g>
  </g>
</svg>